PathFileType	4	(X/Y/Z)	C:/Users/opensim2020/Desktop/walking_exp_matlab/subject03_walking07_straight_02.trc	
DataRate	CameraRate	NumFrames	NumMarkers	Units	OrigDataRate	OrigDataStartFrame	OrigNumFrames	
100.00	100.00	4	46	mm	100.00	1687	252	
Frame#	Time	LFHD			RFHD			LBHD			RBHD			C7			T10			CLAV			STRN			RBAK			LSHO			LUPA			LELB			LFRM			LWRA			LWRB			LFIN			RSHO			RUPA			RELB			RFRM			RWRA			RWRB			RFIN			LASI			RASI			LPSI			RPSI			LTHI			LKNE			LTIB			LANK			LHEE			LTOE			RTHI			RKNE			RTIB			RANK			RHEE			RTOE			*39			*40			*41			*42			*43			*44			*45			
		X1	Y1	Z1	X2	Y2	Z2	X3	Y3	Z3	X4	Y4	Z4	X5	Y5	Z5	X6	Y6	Z6	X7	Y7	Z7	X8	Y8	Z8	X9	Y9	Z9	X10	Y10	Z10	X11	Y11	Z11	X12	Y12	Z12	X13	Y13	Z13	X14	Y14	Z14	X15	Y15	Z15	X16	Y16	Z16	X17	Y17	Z17	X18	Y18	Z18	X19	Y19	Z19	X20	Y20	Z20	X21	Y21	Z21	X22	Y22	Z22	X23	Y23	Z23	X24	Y24	Z24	X25	Y25	Z25	X26	Y26	Z26	X27	Y27	Z27	X28	Y28	Z28	X29	Y29	Z29	X30	Y30	Z30	X31	Y31	Z31	X32	Y32	Z32	X33	Y33	Z33	X34	Y34	Z34	X35	Y35	Z35	X36	Y36	Z36	X37	Y37	Z37	X38	Y38	Z38	X39	Y39	Z39	X40	Y40	Z40	X41	Y41	Z41	X42	Y42	Z42	X43	Y43	Z43	X44	Y44	Z44	X45	Y45	Z45	X46	Y46	Z46	

221	2.200	-912.88452	-1019.76654	1596.72681	-1044.10120	-1002.96704	1610.29089	-904.78900	-889.15186	1561.07813	-1034.31824	-878.22809	1573.97595	-969.11163	-848.33374	1399.53748	-978.98987	-830.70740	1082.97131	-985.37549	-971.01312	1327.50183	-992.68573	-1024.09827	1166.58765	-1067.09497	-793.01385	1222.48389	-824.91803	-941.12744	1356.69373	-761.68304	-937.80316	1155.43604	-755.44714	-940.58716	1031.69531	-760.60046	-956.19592	901.97284	-793.25165	-959.37909	782.69916	-738.98529	-945.18329	789.40289	-752.24451	-943.80603	703.66699	-1138.89832	-908.63074	1355.46985	-1217.65991	-930.33282	1136.22510	-1234.47656	-964.53326	1029.26086	-1238.37964	-1012.27167	901.05432	-1204.99390	-1067.70581	817.96307	-1246.03784	-1035.41174	803.46155	-1238.18481	-1078.26392	742.71912	-887.41571	-1020.47937	934.46558	-1120.53845	-985.13513	920.71027	-912.99335	-852.42438	952.51434	-1061.24731	-833.62415	953.59766	-828.65466	-1028.56152	639.59308	-873.68848	-1077.11768	472.79855	-866.57458	-1061.57361	271.73184	-907.41882	-1079.60767	63.23750	-945.20746	-1043.28662	30.27118	-918.34192	-1233.66992	30.14508	-1165.20544	-890.63196	627.72491	-1148.95520	-882.72870	446.21869	-1144.41919	-733.11084	320.06500	-1095.12769	-579.87683	169.74330	-1037.02026	-535.30579	182.41141	-1078.50684	-629.38745	34.39889				-949.49030	-936.90515	1666.80017															 
222	2.210	-911.31250	-1028.90320	1597.91980	-1042.43457	-1012.15680	1611.64063	-902.84613	-898.83270	1561.74866	-1032.55310	-887.55847	1574.94885	-967.76343	-857.87427	1400.45410	-977.68976	-840.93549	1084.01733	-984.14764	-980.94440	1328.79211	-991.57617	-1034.25610	1168.03479	-1066.63110	-803.23578	1224.00891	-823.96735	-951.28619	1358.30322	-760.13544	-949.95251	1157.51453	-753.79163	-953.94385	1033.94897	-759.17432	-971.64471	904.36249	-792.16418	-976.74585	785.06982	-737.83771	-962.65747	791.58582	-751.30499	-962.22583	705.71265	-1137.42383	-918.66364	1357.18176	-1216.10229	-939.04504	1137.74341	-1232.70471	-972.02167	1030.37622	-1236.53210	-1018.15381	901.59131	-1203.11230	-1072.47534	817.57635	-1244.33630	-1040.06079	803.56378	-1236.10608	-1081.88757	741.87347	-885.39307	-1030.31018	936.08160	-1118.69739	-995.46747	921.92877	-911.62927	-862.64923	953.82361	-1059.72095	-843.69092	954.42249	-826.32080	-1034.33118	639.61456	-872.32837	-1082.27966	472.36823	-866.37756	-1064.71130	271.98816	-908.12817	-1079.92078	63.10932	-945.33472	-1043.27283	30.35557	-918.49829	-1233.84961	30.03701	-1164.21753	-905.78925	626.86072	-1148.68921	-902.14777	445.34534	-1144.65601	-751.84595	321.40524	-1095.93616	-595.34808	174.62187	-1038.36072	-550.70062	191.65622	-1077.75098	-636.25494	38.16626				-947.57666	-946.01038	1667.78589															 
223	2.220	-909.69910	-1038.08411	1598.99182	-1040.73584	-1021.26575	1612.97327	-901.45087	-908.13641	1562.45227	-1031.00403	-896.77985	1575.85999	-966.54187	-867.28986	1401.22815	-975.93420	-851.13373	1084.81006	-982.97858	-990.63379	1329.92188	-990.49127	-1044.14355	1169.23389	-1066.06152	-813.13824	1225.21851	-823.04352	-961.26471	1359.59741	-758.55841	-961.93341	1159.22876	-752.07178	-967.07214	1035.67676	-757.71967	-987.14124	906.45880	-790.93268	-994.77850	787.43976	-736.70935	-980.30920	793.45227	-750.44226	-980.99432	707.50818	-1136.10925	-928.66736	1358.54871	-1214.76099	-947.68481	1138.91199	-1231.19775	-979.43835	1031.10547	-1234.85278	-1024.13684	901.75854	-1201.35327	-1077.32605	816.90259	-1242.63464	-1044.77234	803.35809	-1233.94006	-1085.56531	740.69574	-883.41766	-1040.19385	937.16345	-1116.85022	-1005.35999	922.97388	-909.71838	-872.83606	954.69965	-1057.84558	-853.39087	954.90442	-824.74988	-1038.88220	638.92139	-871.12225	-1087.41992	471.95828	-866.08624	-1067.69763	272.14795	-908.14081	-1080.02307	63.37021	-945.40454	-1043.12439	30.42641	-918.68506	-1233.95117	29.93666	-1162.95972	-920.61780	626.06097	-1148.14160	-921.47198	444.65213	-1145.27136	-771.24304	322.15155	-1096.36902	-610.67444	180.39673	-1039.32153	-566.02820	200.02861	-1078.13477	-646.31989	42.99223				-945.71228	-954.98230	1668.64392															 
224	2.230	-908.03906	-1047.52905	1599.92175	-1039.10400	-1030.33765	1614.28125	-899.91949	-917.42572	1563.05359	-1029.45508	-905.92346	1576.72144	-965.28412	-876.52026	1402.07690	-974.39008	-860.95898	1085.65662	-981.87134	-1000.09509	1330.95349	-989.45789	-1053.85742	1170.40833	-1065.42871	-822.68176	1226.28821	-822.02704	-971.12823	1360.58118	-757.03790	-973.73523	1160.53711	-750.18805	-980.22699	1037.03918	-756.10938	-1002.73779	908.27277	-789.80835	-1012.59125	789.46021	-735.52399	-998.17438	795.08453	-749.45636	-1000.52374	709.23431	-1134.83179	-938.41693	1359.41516	-1213.54565	-956.35132	1139.60120	-1229.90540	-987.00317	1031.44580	-1233.38086	-1030.18127	901.51794	-1199.75916	-1082.30298	816.05542	-1241.13318	-1049.61230	802.80237	-1232.07654	-1089.57043	739.48383	-881.78894	-1049.85596	937.66602	-1115.45215	-1014.85632	923.78223	-907.55090	-882.90234	955.29547	-1055.68701	-862.77588	955.03522	-823.01111	-1044.02637	638.28351	-870.11536	-1092.44556	471.35333	-865.84161	-1070.73608	272.26141	-907.96912	-1079.96277	63.83675	-945.34351	-1042.96912	30.60472	-918.75140	-1234.06433	29.90096	-1161.20032	-935.00964	625.45947	-1147.43982	-940.83270	444.16528	-1145.73462	-790.78680	322.81351	-1096.14783	-626.29297	186.27577	-1038.88379	-581.79382	206.49174	-1079.81067	-659.91998	48.24841				-943.92389	-963.81378	1669.04370															 
